<svg xmlns="http://www.w3.org/2000/svg" width="1200" height="1500" viewBox="0 0 1200 1500" role="img" aria-labelledby="title desc">
  <title id="title">Pipeline visual</title>
  <desc id="desc">Diagrama abstrato mostrando dados, HTML, imagem e vídeo.</desc>
  <rect width="1200" height="1500" fill="#ffffff"/>
  <rect x="92" y="110" width="1016" height="1280" rx="28" fill="#f8fafc" stroke="#dbe3ee" stroke-width="4"/>
  <g font-family="Arial, sans-serif" font-weight="700" font-size="44" fill="#0f172a">
    <text x="160" y="250">post.json</text>
    <text x="160" y="545">HTML/CSS</text>
    <text x="160" y="840">PNG</text>
    <text x="160" y="1135">MP4</text>
  </g>
  <g fill="none" stroke-width="12" stroke-linecap="round">
    <path d="M240 305 C420 380, 420 455, 240 510" stroke="#1d4ed8"/>
    <path d="M240 600 C420 675, 420 750, 240 805" stroke="#0f766e"/>
    <path d="M240 895 C420 970, 420 1045, 240 1100" stroke="#f59e0b"/>
  </g>
  <g>
    <rect x="560" y="184" width="360" height="110" rx="16" fill="#1d4ed8"/>
    <rect x="560" y="479" width="360" height="110" rx="16" fill="#0f766e"/>
    <rect x="560" y="774" width="360" height="110" rx="16" fill="#f59e0b"/>
    <rect x="560" y="1069" width="360" height="110" rx="16" fill="#0f172a"/>
  </g>
  <g font-family="Arial, sans-serif" font-size="34" font-weight="700" fill="#ffffff">
    <text x="602" y="253">estrutura</text>
    <text x="602" y="548">template</text>
    <text x="602" y="843">imagem</text>
    <text x="602" y="1138">vídeo</text>
  </g>
</svg>
